<svg width="500" height="500" viewBox="0 0 500 500" fill="none" xmlns="http://www.w3.org/2000/svg">
<g clip-path="url(#clip0_403_9)">
<path d="M500 0H0V500H500V0Z" fill="url(#paint0_linear_403_9)"/>
<g clip-path="url(#clip1_403_9)">
<path d="M233.201 175.017C227.038 175.017 222.004 180.03 222.004 186.179V214.13C222.004 217.231 219.51 219.72 216.401 219.72C213.293 219.72 210.799 217.231 210.799 214.13V187.415C210.799 181.347 212.462 175.369 215.615 170.176L242.825 124.914C245.978 119.631 244.27 112.779 238.975 109.587C233.589 106.53 227.526 108.054 224.137 112.761C223.784 112.851 223.929 112.851 223.893 112.932L182.83 174.35C179.116 179.904 177.192 186.324 177.192 192.96V220.982L145.645 231.143C141.054 232.982 137.991 237.238 137.991 242.062V275.584C137.991 279.38 140.964 286.448 149.187 286.448C150.154 286.448 151.067 286.358 151.988 286.097L214.739 269.813C232.17 265.143 244.388 249.013 244.388 230.891V186.188C244.388 180.039 239.345 175.017 233.192 175.017H233.201ZM354.337 231.486L322.799 221.009V193.005C322.799 186.369 320.874 179.958 317.16 174.413L276.097 112.986C276.052 112.896 275.881 112.896 275.835 112.815C272.465 108.099 266.076 106.584 261.006 109.596C255.711 112.779 254.003 119.64 257.157 124.968L284.366 170.194C287.547 175.423 289.192 181.356 289.192 187.469V214.184C289.192 217.285 286.697 219.774 283.589 219.774C280.48 219.774 277.986 217.285 277.986 214.184V185.936C277.986 179.787 272.953 174.774 266.79 174.774C260.627 174.774 255.593 179.796 255.593 185.638V230.025C255.593 248.139 267.802 264.287 285.252 269.273L347.993 286.475C348.906 286.683 349.882 286.827 350.794 286.827C359.018 286.827 361.991 279.407 361.991 275.963V242.44C361.991 237.337 358.945 233.045 354.328 231.504L354.337 231.486Z" fill="#1D1D1B"/>
<path d="M198.419 332.891V331.728C198.419 317.68 208.594 305.689 222.474 303.381C231.484 301.857 241.009 304.841 247.578 311.405L250 313.812L252.232 311.405C258.982 304.841 268.326 301.857 277.517 303.381C291.397 305.689 301.572 317.671 301.572 331.728V332.891C301.572 341.231 298.111 349.21 291.984 354.899L255.576 388.809C254.066 390.216 252.069 391 249.991 391C247.913 391 245.924 390.216 244.406 388.809L207.998 354.899C201.88 349.21 198.41 341.231 198.41 332.891H198.419Z" fill="#E6007E"/>
</g>
</g>
<defs>
<linearGradient id="paint0_linear_403_9" x1="376.938" y1="77.2205" x2="-321.31" y2="1026.12" gradientUnits="userSpaceOnUse">
<stop stop-color="#F6B5B5"/>
<stop offset="0.807292" stop-color="#E6007E"/>
</linearGradient>
<clipPath id="clip0_403_9">
<rect width="500" height="500" fill="white"/>
</clipPath>
<clipPath id="clip1_403_9">
<rect width="224" height="283" fill="white" transform="translate(138 108)"/>
</clipPath>
</defs>
</svg>
