<svg width="63" height="80" viewBox="0 0 63 80" fill="none" xmlns="http://www.w3.org/2000/svg">
<g clip-path="url(#clip0_1244_42)">
<path d="M26.7751 18.9446C25.0418 18.9446 23.6261 20.3617 23.6261 22.0999V30.0011C23.6261 30.8778 22.9247 31.5813 22.0504 31.5813C21.1761 31.5813 20.4746 30.8778 20.4746 30.0011V22.4491C20.4746 20.7338 20.9422 19.044 21.8292 17.5759L29.4819 4.78123C30.3689 3.28766 29.8885 1.35062 28.3992 0.448363C26.8844 -0.415662 25.179 0.015076 24.2259 1.34552C24.1268 1.37101 24.1675 1.37101 24.1573 1.39395L12.6085 18.756C11.5639 20.326 11.0226 22.1407 11.0226 24.0166V31.9381L2.15001 34.8105C0.858901 35.3305 -0.00268555 36.5335 -0.00268555 37.8971V47.3733C-0.00268555 48.4463 0.833485 50.4445 3.1463 50.4445C3.41824 50.4445 3.67494 50.419 3.93418 50.3451L21.5827 45.7421C26.4854 44.4219 29.9216 39.8621 29.9216 34.7392V22.1025C29.9216 20.3643 28.5034 18.9446 26.7726 18.9446H26.7751ZM60.8446 34.9074L51.9746 31.9457V24.0293C51.9746 22.1535 51.4332 20.3413 50.3887 18.7738L38.8399 1.40924C38.8271 1.38375 38.7789 1.38375 38.7661 1.36081C37.8182 0.0278197 36.0213 -0.400369 34.5955 0.450911C33.1061 1.35062 32.6258 3.29021 33.5128 4.79652L41.1654 17.581C42.06 19.0593 42.5226 20.7364 42.5226 22.4644V30.0163C42.5226 30.8931 41.8211 31.5966 40.9468 31.5966C40.0725 31.5966 39.371 30.8931 39.371 30.0163V22.0311C39.371 20.2929 37.9554 18.8758 36.2221 18.8758C34.4887 18.8758 33.0731 20.2954 33.0731 21.947V34.4945C33.0731 39.6149 36.5067 44.1797 41.4144 45.5892L59.0604 50.4522C59.3171 50.5108 59.5916 50.5516 59.8483 50.5516C62.1611 50.5516 62.9973 48.454 62.9973 47.4803V38.0041C62.9973 36.5615 62.1408 35.3483 60.8421 34.9125L60.8446 34.9074Z" fill="#1D1D1B"/>
<path d="M16.9928 63.5736V63.2448C16.9928 59.2739 19.8546 55.8841 23.7584 55.2316C26.2923 54.8008 28.9711 55.6445 30.8188 57.5L31.5 58.1805L32.1277 57.5C34.0263 55.6445 36.6542 54.8008 39.239 55.2316C43.1428 55.8841 46.0046 59.2713 46.0046 63.2448V63.5736C46.0046 65.9312 45.0312 68.1869 43.308 69.7951L33.0681 79.3809C32.6437 79.7786 32.082 80.0003 31.4974 80.0003C30.9129 80.0003 30.3537 79.7786 29.9267 79.3809L19.6868 69.7951C17.9662 68.1869 16.9902 65.9312 16.9902 63.5736H16.9928Z" fill="#E6007E"/>
</g>
<defs>
<clipPath id="clip0_1244_42">
<rect width="63" height="80" fill="white"/>
</clipPath>
</defs>
</svg>
